<?xml version="1.0" standalone="no"?><!DOCTYPE svg PUBLIC "-//W3C//DTD SVG 1.1//EN" "http://www.w3.org/Graphics/SVG/1.1/DTD/svg11.dtd"><svg t="1757686542588" class="icon" viewBox="0 0 1024 1024" version="1.1" xmlns="http://www.w3.org/2000/svg" p-id="24866" xmlns:xlink="http://www.w3.org/1999/xlink" width="256" height="256"><path d="M896 873.109333V341.333333H128v509.738667l229.333333-344.021333 241.344 263.253333 106.794667-106.773333L896 873.109333zM840.277333 938.666667l-137.749333-151.530667-106.538667 106.538667-228.010666-248.746667L172.16 938.666667h668.117333zM981.333333 256v768H42.666667V256h938.666666zM618.666667 618.666667a128 128 0 1 1 0-256 128 128 0 0 1 0 256z m0-85.333334a42.666667 42.666667 0 1 0 0-85.333333 42.666667 42.666667 0 0 0 0 85.333333zM128 213.333333V128h768v85.333333H128z m85.333333-128V0h597.333334v85.333333H213.333333z" fill="#000000" p-id="24867"></path></svg>