<?xml version="1.0" standalone="no"?><!DOCTYPE svg PUBLIC "-//W3C//DTD SVG 1.1//EN" "http://www.w3.org/Graphics/SVG/1.1/DTD/svg11.dtd"><svg t="1757686958762" class="icon" viewBox="0 0 1111 1024" version="1.1" xmlns="http://www.w3.org/2000/svg" p-id="45453" xmlns:xlink="http://www.w3.org/1999/xlink" width="277.75" height="256"><path d="M377.149876 0c207.414468 0 375.524766 167.413106 375.524766 373.934298 0 206.542979-168.132085 373.934298-375.524766 373.934298-67.017532 0-129.960851-17.473362-184.428936-48.128-50.067064 23.464851-95.144851 39.739915-135.276937 48.890553C13.128769 747.52-5.499316 722.682553 1.62511 674.118809c19.390638-48.541957 32.768-92.465021 40.175659-131.812766a370.557277 370.557277 0 0 1-40.175659-168.371745C1.62511 167.413106 169.757195 0 377.149876 0z" fill="#353A3F" p-id="45454"></path><path d="M1089.679578 646.035064c0 67.039319-17.473362 129.960851-48.128 184.428936 23.464851 50.067064 39.739915 95.166638 48.890553 135.298723-1.132936 44.315234-25.970383 62.921532-74.51234 55.818894-48.541957-19.390638-92.465021-32.789787-131.812766-40.17566a370.557277 370.557277 0 0 1-168.371745 40.17566c-134.950128 0-253.211234-71.810723-318.965106-179.43966 250.814638-10.24 450.995745-215.955064 450.995744-468.207659 0-27.974809-2.483745-55.361362-7.189787-81.985362a375.590128 375.590128 0 0 1 249.093447 354.086128z" fill="#353A3F" p-id="45455"></path></svg>